<svg xmlns="http://www.w3.org/2000/svg" width="17.44" height="17.434" viewBox="0 0 17.44 17.434">
  <defs>
    <style>
      .cls-1 {
        fill: #7e7e90;
      }
    </style>
  </defs>
  <g id="Group_278" data-name="Group 278" transform="translate(-767.339 -340.579)">
    <g id="_1370047_access_api_key_password_publick_key_icon" data-name="1370047_access_api_key_password_publick key_icon" transform="translate(766.079 353.241) rotate(-45)">
      <g id="Group_275" data-name="Group 275" transform="translate(10.378 0)">
        <path id="Path_327" data-name="Path 327" class="cls-1" d="M3.291,8.537a4.128,4.128,0,0,0,3-1.253,4.294,4.294,0,0,0,0-6.04A4.277,4.277,0,0,0,.785.8.481.481,0,0,0,.7,1.423a.473.473,0,0,0,.626.089,3.286,3.286,0,0,1,4.34.358A3.354,3.354,0,1,1,.919,6.613a.618.618,0,0,1-.134-.179.435.435,0,0,0-.626-.045.435.435,0,0,0-.045.626c.045.089.134.134.179.179A3.961,3.961,0,0,0,3.291,8.537Z"/>
      </g>
      <g id="Group_276" data-name="Group 276" transform="translate(12.192 2.363)">
        <path id="Path_328" data-name="Path 328" class="cls-1" d="M1.476,3.848a1.766,1.766,0,0,0,1.342-.582A1.94,1.94,0,0,0,3.4,1.924,1.766,1.766,0,0,0,2.819.582,1.94,1.94,0,0,0,1.476,0,1.766,1.766,0,0,0,.134.582a.433.433,0,0,0,0,.626.433.433,0,0,0,.626,0,1,1,0,0,1,1.432,0,1.056,1.056,0,0,1,.313.716.89.89,0,0,1-.313.716,1,1,0,0,1-1.432,0,.433.433,0,0,0-.626,0,.433.433,0,0,0,0,.626A1.766,1.766,0,0,0,1.476,3.848Z"/>
      </g>
      <g id="Group_277" data-name="Group 277" transform="translate(0 1.781)">
        <path id="Path_329" data-name="Path 329" class="cls-1" d="M1.767,4.966a1.524,1.524,0,0,0,1.163-.582c.224-.224.313-.313.537-.313s.313.089.537.313a1.4,1.4,0,0,0,1.163.582,1.524,1.524,0,0,0,1.163-.582c.224-.224.313-.313.537-.313s.313.089.537.313a1.4,1.4,0,0,0,1.163.582,1.524,1.524,0,0,0,1.163-.582,1.088,1.088,0,0,1,.4-.313.491.491,0,0,0,.358-.537.491.491,0,0,0-.537-.358,1.745,1.745,0,0,0-.85.537c-.224.224-.313.313-.537.313s-.313-.089-.537-.313a1.4,1.4,0,0,0-1.163-.582A1.524,1.524,0,0,0,5.7,3.714c-.224.224-.313.313-.537.313s-.313-.089-.537-.313a1.4,1.4,0,0,0-1.163-.582A1.524,1.524,0,0,0,2.3,3.714a1.428,1.428,0,0,1-.313.268L.962,2.461,1.991.895h8.456a.423.423,0,0,0,.447-.447A.423.423,0,0,0,10.447,0H1.767a.552.552,0,0,0-.358.179L.067,2.192a.485.485,0,0,0,0,.492L1.409,4.7A.356.356,0,0,0,1.767,4.966Z"/>
      </g>
    </g>
  </g>
</svg>
